<svg width="20" height="20" viewBox="0 0 20 20" fill="none" xmlns="http://www.w3.org/2000/svg">
<path d="M9.55553 17.1738C9.55553 16.8772 9.46758 16.5873 9.30281 16.3407C9.13803 16.0941 8.90383 15.9019 8.62982 15.7884C8.35581 15.6749 8.0543 15.6452 7.76341 15.703C7.47252 15.7609 7.20533 15.9037 6.99561 16.1134C6.78589 16.3232 6.64307 16.5904 6.58521 16.8812C6.52735 17.1721 6.55705 17.4736 6.67054 17.7477C6.78404 18.0217 6.97625 18.2559 7.22285 18.4206C7.46945 18.5854 7.75938 18.6734 8.05596 18.6734C8.45354 18.6729 8.83472 18.5148 9.11585 18.2337C9.39699 17.9525 9.55511 17.5714 9.55553 17.1738ZM7.24965 17.1738C7.24965 17.0143 7.29695 16.8583 7.38558 16.7257C7.47421 16.5931 7.60018 16.4897 7.74757 16.4287C7.89495 16.3676 8.05712 16.3517 8.21358 16.3828C8.37003 16.4139 8.51374 16.4908 8.62652 16.6036C8.73931 16.7164 8.81611 16.8601 8.8472 17.0166C8.8783 17.173 8.8623 17.3352 8.80123 17.4826C8.74015 17.6299 8.63675 17.7559 8.50409 17.8445C8.37144 17.9331 8.21549 17.9803 8.05596 17.9803C7.84216 17.98 7.63719 17.895 7.48603 17.7438C7.33487 17.5926 7.24986 17.3876 7.24965 17.1738Z" fill="white" stroke="white" stroke-width="0.4"/>
<path d="M17.108 17.1738C17.108 16.8772 17.0201 16.5873 16.8553 16.3407C16.6905 16.094 16.4563 15.9018 16.1823 15.7884C15.9082 15.6749 15.6067 15.6452 15.3158 15.7031C15.0249 15.7609 14.7577 15.9038 14.548 16.1135C14.3383 16.3232 14.1955 16.5905 14.1377 16.8814C14.0798 17.1723 14.1096 17.4738 14.2231 17.7478C14.3366 18.0218 14.5289 18.256 14.7755 18.4207C15.0221 18.5855 15.3121 18.6734 15.6087 18.6734C16.0062 18.6729 16.3874 18.5148 16.6685 18.2337C16.9496 17.9525 17.1077 17.5714 17.108 17.1738ZM14.8015 17.1738C14.8015 17.0143 14.8488 16.8583 14.9375 16.7257C15.0261 16.5931 15.152 16.4897 15.2994 16.4287C15.4468 16.3676 15.609 16.3517 15.7654 16.3828C15.9218 16.4139 16.0656 16.4907 16.1783 16.6035C16.2911 16.7163 16.368 16.86 16.3991 17.0164C16.4302 17.1729 16.4142 17.3351 16.3532 17.4824C16.2921 17.6298 16.1888 17.7558 16.0561 17.8444C15.9235 17.933 15.7676 17.9803 15.6081 17.9803C15.3942 17.9801 15.1892 17.8951 15.038 17.7439C14.8868 17.5926 14.8018 17.3876 14.8015 17.1738Z" fill="white" stroke="white" stroke-width="0.4"/>
<path d="M7.13838 12.6381L7.15086 12.6369L16.6118 11.727C16.9418 11.6966 17.2531 11.5603 17.4992 11.3382C17.7452 11.1162 17.9128 10.8205 17.9767 10.4953L19.1018 4.90201C19.112 4.8517 19.1108 4.79976 19.0984 4.74996C19.086 4.70016 19.0627 4.65374 19.0301 4.61404C18.9976 4.57435 18.9567 4.54238 18.9103 4.52044C18.8639 4.49849 18.8132 4.48713 18.7618 4.48717H5.00814L4.54142 2.86345C4.41246 2.4213 4.14395 2.03271 3.77596 1.75573C3.40797 1.47875 2.96026 1.32824 2.49969 1.32666H0.94052C0.848616 1.32666 0.760476 1.36317 0.695489 1.42815C0.630503 1.49314 0.593994 1.58128 0.593994 1.67319C0.593994 1.76509 0.630503 1.85323 0.695489 1.91822C0.760476 1.9832 0.848616 2.01971 0.94052 2.01971H2.49969C2.81007 2.02081 3.11177 2.12228 3.35974 2.30897C3.6077 2.49566 3.78863 2.75754 3.87549 3.05553L4.41409 4.92993C4.41409 4.93112 4.41548 4.93211 4.41607 4.9335C4.41631 4.9353 4.41664 4.93708 4.41707 4.93884L6.66849 12.0452C6.33559 12.1758 6.05871 12.4185 5.88561 12.7315C5.71251 13.0444 5.65404 13.4079 5.72029 13.7594C5.78653 14.1108 5.97334 14.4281 6.24848 14.6565C6.52363 14.8849 6.86987 15.0102 7.22749 15.0107H16.9599C17.0518 15.0107 17.14 14.9742 17.2049 14.9092C17.2699 14.8442 17.3064 14.756 17.3064 14.6641C17.3064 14.5722 17.2699 14.4841 17.2049 14.4191C17.14 14.3541 17.0518 14.3176 16.9599 14.3176H7.22749C7.01188 14.3176 6.80449 14.2349 6.64804 14.0865C6.49159 13.9382 6.398 13.7355 6.38656 13.5202C6.37511 13.3049 6.44667 13.0934 6.58651 12.9293C6.72634 12.7652 6.92399 12.6609 7.13838 12.6381ZM5.22061 5.18022H18.3389L17.2965 10.3587C17.2614 10.538 17.169 10.701 17.0334 10.8233C16.8977 10.9456 16.726 11.0206 16.5441 11.0371L7.3562 11.9204L5.22061 5.18022Z" fill="white" stroke="white" stroke-width="0.4"/>
</svg>
